<svg width="148" height="147" viewBox="0 0 148 147" fill="none" xmlns="http://www.w3.org/2000/svg">
<path d="M31.8923 114.465H31.2721C30.7474 114.465 30.6043 114.37 30.5088 114.084L29.9364 112.51H26.5494L25.9769 114.084C25.8815 114.37 25.7384 114.465 25.2136 114.465H24.6412C24.3549 114.465 24.2595 114.322 24.3549 114.084L27.408 106.117C27.5034 105.831 27.6466 105.783 27.9328 105.783H28.6007C28.8869 105.783 29.03 105.831 29.1254 106.117L32.1785 114.084C32.2739 114.322 32.2262 114.465 31.8923 114.465ZM28.2667 107.167H28.1713C28.1713 107.167 28.1713 107.882 27.8851 108.645L26.931 111.269H29.4593L28.5052 108.693C28.3144 107.882 28.3144 107.167 28.2667 107.167Z" fill="#1B1C20"/>
<path d="M37.9507 106.165V106.785C37.9507 107.071 37.8553 107.214 37.5214 107.214H35.4224V114.084C35.4224 114.37 35.327 114.513 34.993 114.513H34.2775C33.9912 114.513 33.8481 114.418 33.8481 114.084V107.214H31.7491C31.4152 107.214 31.3198 107.119 31.3198 106.785V106.165C31.3198 105.878 31.4152 105.735 31.7491 105.735H37.5214C37.8076 105.735 37.9507 105.831 37.9507 106.165Z" fill="#1B1C20"/>
<path d="M44.6772 106.165V106.785C44.6772 107.071 44.5817 107.214 44.2478 107.214H40.4791V109.361H43.6754C43.9616 109.361 44.1047 109.457 44.1047 109.79V110.411C44.1047 110.697 44.0093 110.84 43.6754 110.84H40.4791V113.082H44.3909C44.7249 113.082 44.8203 113.177 44.8203 113.511V114.132C44.8203 114.418 44.7249 114.561 44.3909 114.561H39.3819C39.048 114.561 38.9526 114.466 38.9526 114.132V106.26C38.9526 105.974 39.048 105.831 39.3819 105.831H44.2478C44.5817 105.736 44.6772 105.831 44.6772 106.165Z" fill="#1B1C20"/>
<path d="M47.4916 106.165V113.034H51.0218C51.308 113.034 51.4511 113.13 51.4511 113.464V114.084C51.4511 114.37 51.3557 114.513 51.0218 114.513H46.3944C46.0605 114.513 45.9651 114.418 45.9651 114.084V106.213C45.9651 105.926 46.0605 105.783 46.3944 105.783H47.11C47.3962 105.736 47.4916 105.831 47.4916 106.165Z" fill="#1B1C20"/>
<path d="M52.882 105.735H53.5976C53.8838 105.735 54.0269 105.831 54.0269 106.165V114.036C54.0269 114.322 53.9315 114.465 53.5976 114.465H52.882C52.548 114.465 52.4526 114.37 52.4526 114.036V106.165C52.4526 105.831 52.5958 105.735 52.882 105.735Z" fill="#1B1C20"/>
<path d="M61.2307 106.165V106.785C61.2307 107.071 61.1353 107.214 60.8013 107.214H57.0327V109.361H60.2289C60.5151 109.361 60.6582 109.457 60.6582 109.79V110.411C60.6582 110.697 60.5628 110.84 60.2289 110.84H57.0327V113.082H60.9445C61.2784 113.082 61.3738 113.177 61.3738 113.511V114.132C61.3738 114.418 61.2784 114.561 60.9445 114.561H55.9354C55.6015 114.561 55.5061 114.466 55.5061 114.132V106.26C55.5061 105.974 55.6015 105.831 55.9354 105.831H60.8013C61.1353 105.736 61.2307 105.831 61.2307 106.165Z" fill="#1B1C20"/>
<path d="M69.054 108.455C69.054 109.743 68.4339 110.601 67.4321 110.935C67.5752 111.078 67.7183 111.221 67.8137 111.46L69.1494 114.036C69.2925 114.274 69.2448 114.465 68.9586 114.465H68.243C67.7183 114.465 67.5752 114.418 67.4321 114.084L66.3826 111.985C66.0486 111.317 65.7624 111.126 64.9037 111.126H64.045V114.036C64.045 114.322 63.9496 114.465 63.6157 114.465H62.9001C62.5662 114.465 62.4708 114.37 62.4708 114.036V106.165C62.4708 105.878 62.5662 105.735 62.9001 105.735H66.2871C68.0045 105.735 69.054 106.737 69.054 108.455ZM66.144 107.166H64.045V109.695H66.144C66.955 109.695 67.4321 109.265 67.4321 108.455C67.4321 107.644 67.0027 107.166 66.144 107.166Z" fill="#1B1C20"/>
<path d="M27.98 123.72C25.8333 123.72 24.7838 122.766 24.7838 120.906C24.7838 119.188 26.0241 118.091 28.0754 118.091C30.2222 118.091 31.3671 119.331 31.3671 121.287V123.959C31.3671 125.962 30.2222 127.155 28.0754 127.155C26.4058 127.155 25.3563 126.439 24.8792 125.199C24.7838 124.913 24.8315 124.77 25.1655 124.674L25.8333 124.436C26.1195 124.293 26.215 124.388 26.3581 124.674C26.6443 125.342 27.169 125.676 28.0754 125.676C29.2204 125.676 29.8405 125.056 29.8405 123.911V123.386C29.5543 123.577 28.8864 123.72 27.98 123.72ZM28.0754 119.57C26.9305 119.57 26.3104 120.047 26.3104 120.953C26.3104 121.86 26.7874 122.337 28.0754 122.337C29.0772 122.337 29.6974 122.146 29.8405 122.051V121.335C29.8405 120.19 29.2204 119.57 28.0754 119.57Z" fill="#1B1C20"/>
<path d="M35.6609 123.72C33.5142 123.72 32.4647 122.766 32.4647 120.906C32.4647 119.188 33.705 118.091 35.7563 118.091C37.9031 118.091 39.048 119.331 39.048 121.287V123.959C39.048 125.962 37.9031 127.155 35.7563 127.155C34.0867 127.155 33.0372 126.439 32.5601 125.199C32.4647 124.913 32.5124 124.77 32.8464 124.674L33.5142 124.436C33.8005 124.293 33.8959 124.388 34.039 124.674C34.3252 125.342 34.85 125.676 35.7563 125.676C36.9013 125.676 37.5214 125.056 37.5214 123.911V123.386C37.2352 123.577 36.615 123.72 35.6609 123.72ZM35.8041 119.57C34.6591 119.57 34.039 120.047 34.039 120.953C34.039 121.86 34.516 122.337 35.8041 122.337C36.8059 122.337 37.426 122.146 37.5691 122.051V121.335C37.5691 120.19 36.949 119.57 35.8041 119.57Z" fill="#1B1C20"/>
<path d="M109.508 15.001H67.0029C56.8895 15.001 48.2549 21.5365 45.1541 30.6481C38.38 32.938 33.0371 38.3286 30.6995 45.1027C21.5879 48.2035 15.0524 56.8381 15.0524 66.9515V130.733C15.0524 131.735 15.8633 132.546 16.8651 132.546C17.867 132.546 18.6779 131.735 18.6779 130.733V90.0406H93.0497C95.4349 90.0406 97.7725 89.6589 100.015 88.9911V100.011H92.8112C89.5195 100.011 86.4187 101.299 84.1289 103.589L77.2117 110.506C75.9237 111.794 75.542 113.702 76.2576 115.372C76.9255 117.041 78.5474 118.139 80.3602 118.139H95.0533C96.7707 118.139 98.4403 117.948 100.015 117.614V130.78C100.015 131.782 100.826 132.593 101.827 132.593C102.829 132.593 103.64 131.782 103.64 130.78V116.469C109.842 113.941 114.708 108.836 116.854 102.492C125.966 99.3907 132.502 90.7561 132.502 80.6427V38.0901C132.597 25.3529 122.245 15.001 109.508 15.001ZM44.1046 35.037C43.9615 36.0388 43.9138 37.0406 43.9138 38.0901C43.9138 40.0937 44.1523 42.0496 44.6293 43.8624H38.1415C37.092 43.8624 36.0902 43.9578 35.0884 44.0532C36.9966 40.1414 40.1928 36.9452 44.1046 35.037ZM67.0029 61.1792H99.1559C99.7284 62.992 100.015 64.9479 100.015 66.9515V71.9128H52.5483C41.8148 71.9128 33.1325 63.1828 33.1325 52.4969C33.1325 50.9704 33.3233 49.4915 33.6572 48.0604C35.0884 47.7265 36.5672 47.5356 38.1415 47.5356H45.9651C49.5906 55.55 57.6527 61.1792 67.0029 61.1792ZM50.0677 47.5356H80.6465C87.9453 47.5356 94.29 51.5428 97.5816 57.5059H67.0029C59.7518 57.5059 53.3593 53.451 50.0677 47.5356ZM93.0974 86.3673H18.7256V66.9515C18.7256 59.271 23.2099 52.5923 29.6977 49.4438C29.5546 50.4456 29.5069 51.4474 29.5069 52.4969C29.5069 65.2341 39.8589 75.586 52.596 75.586H100.11V85.0793C97.8679 85.938 95.5303 86.3673 93.0974 86.3673ZM103.736 75.586H111.941L106.836 80.6904C105.882 81.6445 104.833 82.5032 103.736 83.2188V75.586ZM95.101 114.465H80.4079C79.9309 114.465 79.7401 114.179 79.6924 113.988C79.5969 113.798 79.5492 113.464 79.8832 113.13L86.8004 106.212C88.4223 104.591 90.6168 103.684 92.9066 103.684H100.11V113.798C98.488 114.227 96.8184 114.465 95.101 114.465ZM103.736 112.414V103.684H109.508C110.557 103.684 111.559 103.636 112.561 103.493C110.7 107.357 107.552 110.506 103.736 112.414ZM114.517 95.0496C114.517 96.5761 114.326 98.1027 113.992 99.5338C112.561 99.8678 111.082 100.059 109.508 100.059H103.736V87.5122C105.787 86.415 107.743 85.0316 109.412 83.3619L114.517 78.2575V95.0496ZM114.517 71.9605H103.736V66.9992C103.736 64.9956 103.497 63.0397 103.02 61.2269H114.517V71.9605ZM114.517 57.5059H101.732C98.1064 49.4915 90.0443 43.8624 80.6942 43.8624H48.4457C47.8733 42.0496 47.587 40.0937 47.587 38.0901C47.587 36.5635 47.7779 35.037 48.1118 33.6058C49.5429 33.2719 51.0218 33.0811 52.596 33.0811H95.101C105.835 33.0811 114.517 41.8111 114.517 52.4969V57.5059ZM128.924 80.595C128.924 88.2755 124.439 94.9542 117.952 98.1027C118.095 97.1009 118.142 96.0991 118.142 95.0496V73.821V73.7733V61.1792H128.924V80.595ZM128.924 57.5059H118.142V52.4969C118.142 39.7598 107.79 29.4078 95.0533 29.4078H52.5483C51.4988 29.4078 50.497 29.4555 49.4952 29.5986C52.6437 23.1108 59.3224 18.6265 67.0029 18.6265H109.508C120.241 18.6265 128.924 27.3565 128.924 38.0424V57.5059Z" fill="#E9503E"/>
</svg>
