<svg width="312" height="57" viewBox="0 0 312 57" fill="none" xmlns="http://www.w3.org/2000/svg">
<path d="M81.733 39.5535C83.9442 39.5535 85.9785 39.0246 87.8359 38.3195V43.1674C85.7131 43.9607 83.325 44.4895 80.76 44.4895C73.3304 44.4895 69.1733 39.9942 69.1733 31.885C69.1733 23.7758 73.3304 19.2805 80.76 19.2805C83.325 19.2805 85.7131 19.8094 87.8359 20.6908V25.5387C85.9785 24.8336 84.0326 24.3928 81.733 24.3928C77.5759 24.3928 75.0994 25.6268 75.0109 31.885C75.0994 38.2314 77.6644 39.5535 81.733 39.5535Z" fill="#F37522"/>
<path d="M106.321 19.3685V24.3927C103.049 24.4808 99.5109 24.3927 99.5109 25.803C99.5109 29.6813 99.5109 43.9605 99.5109 43.9605H93.6733C93.6733 43.9605 93.6733 28.0066 93.6733 22.3654C93.5849 18.8396 106.321 19.3685 106.321 19.3685Z" fill="#F37522"/>
<path d="M132.325 19.8093V33.119C132.325 40.3467 129.937 44.5776 121.534 44.5776C113.132 44.5776 110.832 40.3467 110.832 33.119V19.8093H116.581V33.9123C116.581 37.7906 117.996 39.2009 121.534 39.2009C125.072 39.2009 126.576 37.8787 126.576 34.0004V19.8975L132.325 19.8093Z" fill="#F37522"/>
<path d="M175.311 39.6416C177.611 39.6416 179.556 39.2009 181.414 38.4076V43.3436C179.291 44.1369 176.903 44.7539 174.338 44.7539C166.908 44.7539 162.751 40.2586 162.751 32.1494C162.751 24.0402 166.908 19.5449 174.338 19.5449C176.991 19.5449 179.291 20.0738 181.414 20.9552V25.8912C179.556 25.1861 177.611 24.7454 175.311 24.7454C171.154 24.7454 168.589 25.9794 168.589 32.2376C168.589 38.3195 171.154 39.6416 175.311 39.6416Z" fill="#F37522"/>
<path d="M208.214 29.5932V44.225H202.376V29.1525C202.376 27.037 201.934 24.7453 196.45 24.7453C194.858 24.7453 193.531 25.0097 192.559 25.4504V44.225H186.721V10.6423H192.559V20.3381C193.885 19.8092 195.566 19.5448 197.423 19.5448C204.234 19.4567 208.214 23.2468 208.214 29.5932Z" fill="#F37522"/>
<path d="M215.82 53.8327C220.243 42.991 219.977 43.7843 220.243 42.991L211.486 19.9856H217.678L223.161 36.9091L228.557 19.9856H234.748L225.461 44.842C221.923 53.8327 225.461 44.842 221.923 53.8327H215.82Z" fill="#F37522"/>
<path d="M251.642 19.5449V24.5691C248.369 24.6573 244.743 24.5691 244.743 25.9794C244.743 30.1221 244.743 44.2251 244.743 44.2251H238.905C238.905 44.2251 238.905 27.7423 238.905 22.63C238.905 19.0161 251.642 19.5449 251.642 19.5449Z" fill="#F37522"/>
<path d="M277.203 32.1492C277.203 40.2584 273.046 44.7538 265.616 44.6656C258.187 44.6656 254.03 40.1703 254.03 32.0611C254.03 23.9519 258.187 19.4566 265.616 19.5447C273.135 19.6329 277.203 24.04 277.203 32.1492ZM271.366 32.1492C271.366 25.7148 269.154 24.3926 265.705 24.3926C262.255 24.3926 260.044 25.6266 259.956 32.1492C259.956 38.5837 262.167 39.9059 265.616 39.9059C269.154 39.9059 271.366 38.6719 271.366 32.1492Z" fill="#F37522"/>
<path d="M282.245 44.3131V10.7305H288.082V44.3131H282.245Z" fill="#F37522"/>
<path d="M294.981 44.3131V10.7305H300.819V44.3131H294.981Z" fill="#F37522"/>
<path d="M158.86 28.8881V44.1369H153.199V29.0644C153.199 26.949 153.288 24.6572 148.069 24.6572C146.477 24.6572 143.47 24.8335 143.47 25.8913C143.47 30.651 143.47 44.1369 143.47 44.1369H137.721C137.721 25.9794 137.721 27.8304 137.721 24.0402C137.721 19.9856 142.762 19.4568 148.777 19.4568C155.499 19.4568 158.86 22.1892 158.86 28.8881Z" fill="#F37522"/>
<path d="M7.7018 31.7968C7.7018 18.2227 18.7578 7.20476 32.3788 7.20476C45.3807 7.20476 56.0829 17.3413 56.9674 30.122C56.9674 29.5932 57.0559 29.0643 57.0559 28.4473C57.0559 13.0222 44.4962 0.505859 29.0178 0.505859C13.5394 0.505859 0.979736 12.9341 0.979736 28.4473C0.979736 43.8724 13.5394 56.3888 29.0178 56.4769C29.6369 56.4769 30.2561 56.4769 30.9637 56.3888C17.9618 55.5955 7.7018 44.842 7.7018 31.7968Z" fill="#F37522"/>
<path d="M46.0882 33.207C41.1351 33.207 37.1549 29.1524 37.1549 24.2164C37.1549 20.3381 39.6315 17.0768 43.0809 15.8428C40.339 14.4325 37.2434 13.551 33.8823 13.551C23.0032 13.551 14.1584 22.3654 14.1584 33.207C14.1584 44.0486 23.0032 52.863 33.8823 52.863C44.7614 52.863 53.6063 44.0486 53.6063 33.207C53.6063 31.973 53.5178 30.739 53.2525 29.5931C51.572 31.7967 49.007 33.207 46.0882 33.207Z" fill="#F37522"/>
<path d="M306.126 13.375C306.126 11.8766 307.364 10.7307 309.045 10.7307C310.725 10.7307 311.963 11.9647 311.963 13.375C311.963 14.8735 310.725 16.0193 309.045 16.0193C307.453 16.1075 306.126 14.8735 306.126 13.375ZM311.521 13.375C311.521 12.141 310.46 11.0833 309.045 11.0833C307.629 11.0833 306.568 12.141 306.568 13.375C306.568 14.609 307.629 15.6667 309.045 15.6667C310.46 15.6667 311.521 14.6972 311.521 13.375ZM308.072 14.609V12.0529C308.072 11.9647 308.072 11.9647 308.16 11.9647H309.222C309.929 11.9647 310.283 12.4054 310.283 12.8462C310.283 13.2869 309.929 13.6394 309.398 13.6394L310.194 14.5209C310.283 14.609 310.194 14.609 310.106 14.609H309.929C309.841 14.609 309.841 14.609 309.841 14.5209L308.956 13.6394H308.337V14.5209C308.337 14.609 308.337 14.609 308.249 14.609H308.072C308.072 14.6972 308.072 14.6972 308.072 14.609ZM309.222 13.4632C309.575 13.4632 309.929 13.2869 309.929 12.9343C309.929 12.5817 309.664 12.3173 309.222 12.3173H308.337V13.4632H309.222Z" fill="#F37522"/>
</svg>
