<svg width="176" height="130" viewBox="0 0 176 130" fill="none" xmlns="http://www.w3.org/2000/svg">
<g clip-path="url(#clip0)">
<path d="M127.238 2.38428L129.213 11.5738L121.936 8.5156L127.238 2.38428ZM146.688 9.11039L142.068 25.6258L131.153 12.8675L146.688 9.11039Z" fill="#E54145"/>
<path d="M143.643 24.2627L153.457 19.2169L147.632 10.0026L143.643 24.2627ZM137.981 0.0893555L128.863 1.958L131.484 12.4809L137.981 0.0893555Z" fill="#E86E35"/>
<g opacity="0.91">
<g opacity="0.91">
<path opacity="0.91" d="M145.948 7.83649L132.836 11.6779L138.494 0.48584L145.948 7.83649Z" fill="#FAB965"/>
</g>
</g>
<path d="M130.63 13.0212L127.357 30.2801L142.492 29.6308L130.63 13.0212ZM128.221 30.865L144.265 47.8067L142.063 32.2182L128.221 30.865Z" fill="#FAB965"/>
<path d="M144.265 47.8018L154.558 51.1326L155.718 46.0471L144.265 47.8018Z" fill="#FAB965"/>
<path d="M144.393 24.2628L154.212 22.3347L156.986 43.3507L144.393 24.2628ZM143.539 24.8081L144.714 46.6469L155.639 44.1686L143.539 24.8081Z" fill="#E54145"/>
<path d="M150.184 53.7992L155.698 41.5415H162.224L138.973 92.5053L115.77 41.5415H122.292L127.806 53.7992H150.184ZM139.012 79.1423L147.666 59.3159H130.363L139.012 79.1423Z" fill="#595A5C"/>
<path d="M165.255 90.0022L175.815 78.8548L161.444 47.3953L165.255 90.0022Z" fill="#FAB965"/>
<path d="M6.95199 46.959V60.7086H23.8699V66.2452H6.95199V90.2351H0.889795V41.3333H24.4524V46.8698H6.98161L6.95199 46.959ZM61.8425 90.2698H54.4918L40.146 69.5859H37.6283V90.2698H31.5661V41.3679H38.9167C43.2412 41.3679 47.8916 41.4324 51.7816 43.6381C53.7644 44.8615 55.3977 46.5797 56.5224 48.6254C57.6471 50.6711 58.2248 52.9744 58.1993 55.3109C58.1993 62.3146 53.5489 68.1435 46.5093 68.9911L61.8425 90.2698ZM37.6283 64.5252H39.6029C45.8034 64.5252 52.5122 63.3604 52.5122 55.5736C52.5122 47.7868 45.2653 46.8202 39.2623 46.8202H37.6283V64.5252ZM72.5056 90.2649H66.4385V41.3679H72.5056V90.2649ZM81.0855 41.3828H91.1958C106.109 41.3828 118.505 49.3134 118.505 65.5661C118.505 82.2302 106.366 90.2649 91.0032 90.2649H81.0855V41.3878V41.3828ZM87.1527 84.6986H89.2853C101.681 84.6986 112.399 80.0295 112.399 65.8288C112.399 51.6281 101.691 46.959 89.2952 46.959H87.1625V84.6887L87.1527 84.6986ZM32.9138 97.8534V107.98V97.8534ZM32.5732 97.8534H33.2544V107.98H32.5732V97.8534ZM1.16625 100.183V102.572H4.10355V103.563H1.16625V107.737H0.0703125V99.2214H4.20722V100.213L1.16625 100.183ZM10.7137 107.712H9.44993L6.98161 104.109H6.48795V107.712H5.44631V99.2214H6.7249C7.49032 99.1578 8.25912 99.2944 8.95627 99.618C9.30028 99.8317 9.58336 100.131 9.778 100.487C9.97263 100.843 10.0722 101.244 10.067 101.65C10.0872 102.23 9.88992 102.796 9.51418 103.237C9.13844 103.677 8.61163 103.96 8.03805 104.029L10.7137 107.712ZM6.50276 103.251H6.83351C7.9097 103.251 9.07475 103.048 9.07475 101.69C9.07475 100.332 7.8159 100.168 6.77921 100.168H6.48795L6.50276 103.251ZM12.5699 107.712H11.5134V99.2214H12.5699V107.712ZM14.0509 99.2115H15.8083C18.4001 99.2115 20.5574 100.585 20.5574 103.42C20.5574 106.255 18.4445 107.712 15.7787 107.712H14.0509V99.2115ZM15.1073 106.741H15.4776C17.6349 106.741 19.4911 105.928 19.4911 103.454C19.4911 100.981 17.6546 100.173 15.4776 100.173H15.1073V106.741ZM22.8085 105.576L21.8212 107.712H20.7203L24.7535 98.8547L28.7966 107.712H27.6415L26.7282 105.576H22.8085ZM24.7535 101.169L23.2725 104.609H26.2839L24.7535 101.169ZM41.5381 107.712H40.5063V100.183H38.4626V99.1917H43.5374V100.183H41.5381V107.712ZM45.2801 97.9228V103.142C45.4478 102.874 45.681 102.654 45.9575 102.502C46.234 102.35 46.5446 102.272 46.8598 102.275C48.3408 102.275 48.7012 103.266 48.7012 104.565V107.712H47.7138V104.674C47.7138 103.752 47.5954 103.187 46.5537 103.187C45.2505 103.187 45.2504 104.337 45.2504 105.288V107.717H44.2631V97.9278H45.3294L45.2801 97.9228ZM50.7499 105.239C50.7386 105.456 50.7701 105.674 50.8427 105.879C50.9152 106.084 51.0274 106.273 51.1728 106.435C51.3182 106.596 51.4939 106.728 51.6898 106.821C51.8858 106.914 52.0982 106.968 52.3148 106.979C52.647 106.98 52.9725 106.884 53.2513 106.703C53.5301 106.522 53.7502 106.263 53.8846 105.957L54.7387 106.453C54.4999 106.891 54.1476 107.256 53.7192 107.509C53.2907 107.762 52.802 107.894 52.3049 107.891C51.6275 107.9 50.9742 107.639 50.4882 107.165C50.0023 106.691 49.7236 106.043 49.7132 105.363C49.7132 105.283 49.7132 105.204 49.7132 105.12C49.7132 103.499 50.5771 102.28 52.2753 102.28C53.9735 102.28 54.7436 103.514 54.7436 105.05V105.204H50.7301L50.7499 105.239ZM53.7464 104.47C53.7198 104.1 53.55 103.755 53.2732 103.509C52.9965 103.262 52.6348 103.134 52.2654 103.152C51.9019 103.156 51.5519 103.292 51.2799 103.534C51.0079 103.776 50.8319 104.109 50.7844 104.47H53.7464ZM58.0956 99.2214H59.31L61.3834 102.85L63.4815 99.2214H64.6761L61.9165 104.019V107.712H60.8502V104.019L58.0956 99.2214ZM69.3264 105.09C69.3361 105.647 69.1811 106.194 68.8809 106.663C68.5807 107.131 68.1489 107.5 67.6401 107.722C67.1312 107.943 66.5683 108.009 66.0224 107.909C65.4766 107.81 64.9724 107.55 64.5736 107.163C64.1748 106.776 63.8994 106.279 63.7822 105.734C63.6649 105.19 63.7112 104.623 63.9151 104.105C64.119 103.587 64.4713 103.141 64.9275 102.824C65.3837 102.507 65.9233 102.333 66.478 102.324H66.5224C66.8844 102.318 67.244 102.383 67.5808 102.516C67.9175 102.65 68.2247 102.848 68.4848 103.101C68.7449 103.354 68.9526 103.656 69.0962 103.99C69.2398 104.323 69.3164 104.682 69.3215 105.045C69.3239 105.06 69.3239 105.075 69.3215 105.09H69.3264ZM64.7255 105.09C64.7255 105.455 64.8332 105.811 65.035 106.114C65.2368 106.418 65.5236 106.654 65.8592 106.794C66.1947 106.933 66.564 106.97 66.9202 106.898C67.2764 106.827 67.6037 106.652 67.8605 106.394C68.1173 106.136 68.2922 105.807 68.3631 105.45C68.4339 105.092 68.3976 104.721 68.2586 104.384C68.1196 104.048 67.8842 103.76 67.5822 103.557C67.2802 103.354 66.9251 103.246 66.5619 103.246C66.3206 103.246 66.0815 103.293 65.8584 103.385C65.6353 103.478 65.4326 103.613 65.2619 103.785C65.0913 103.956 64.956 104.16 64.864 104.384C64.7719 104.608 64.7248 104.848 64.7255 105.09ZM71.2024 102.443V105.358C71.2024 106.205 71.4146 106.944 72.4168 106.944C73.4189 106.944 73.6312 106.195 73.6312 105.358V102.443H74.6185V105.477C74.6185 106.919 73.9471 107.905 72.397 107.905C70.8469 107.905 70.1706 106.914 70.1706 105.477V102.443H71.2024ZM77.0029 103.152C77.1706 102.884 77.4038 102.664 77.6803 102.512C77.9569 102.36 78.2675 102.282 78.5826 102.285C80.0636 102.285 80.4191 103.276 80.4191 104.575V107.722H79.4317V104.674C79.4317 103.752 79.3083 103.187 78.2716 103.187C76.9684 103.187 76.9684 104.337 76.9684 105.288V107.717H75.9564V102.433H76.9684V103.142L77.0029 103.152ZM86.7775 107.613C86.7775 109.457 86.2838 110.731 84.2154 110.731C83.9086 110.756 83.5999 110.721 83.3067 110.627C83.0136 110.533 82.7418 110.381 82.507 110.182C82.2723 109.982 82.079 109.737 81.9385 109.463C81.7979 109.188 81.7127 108.888 81.6878 108.58C81.6878 108.5 81.6878 108.421 81.6878 108.342H82.6998C82.6851 108.72 82.8201 109.089 83.0755 109.367C83.3308 109.646 83.6856 109.812 84.0623 109.829C84.1313 109.833 84.2006 109.833 84.2697 109.829C85.5236 109.829 85.7803 108.971 85.7803 107.891V106.899C85.5869 107.198 85.3232 107.445 85.0125 107.618C84.7017 107.791 84.3534 107.885 83.9981 107.891C83.3143 107.809 82.6841 107.478 82.2268 106.961C81.7696 106.444 81.517 105.777 81.517 105.085C81.517 104.394 81.7696 103.726 82.2268 103.209C82.6841 102.692 83.3143 102.361 83.9981 102.28C84.3698 102.281 84.7347 102.379 85.0568 102.565C85.3789 102.751 85.647 103.018 85.8346 103.34V102.418H86.8466V107.593L86.7775 107.613ZM85.8593 105.075C85.9057 104.628 85.7732 104.18 85.4908 103.83C85.2085 103.481 84.7994 103.258 84.3536 103.212C83.9078 103.165 83.4618 103.298 83.1137 103.581C82.7656 103.865 82.5439 104.276 82.4974 104.723C82.4875 104.84 82.4875 104.958 82.4974 105.075C82.4429 105.325 82.4448 105.584 82.5031 105.833C82.5614 106.081 82.6745 106.314 82.8341 106.513C82.9937 106.712 83.1958 106.873 83.4254 106.984C83.655 107.094 83.9064 107.151 84.161 107.151C84.4157 107.151 84.6671 107.094 84.8967 106.984C85.1264 106.873 85.3284 106.712 85.488 106.513C85.6476 106.314 85.7607 106.081 85.819 105.833C85.8773 105.584 85.8792 105.325 85.8247 105.075H85.8593ZM92.4941 100.188V102.577H95.4561V103.568H92.4941V107.742H91.4377V99.2214H95.54V100.213L92.4941 100.188ZM97.2728 105.244C97.2513 105.683 97.4046 106.114 97.699 106.44C97.9933 106.766 98.4047 106.962 98.8426 106.983C99.1757 106.986 99.5022 106.891 99.782 106.709C100.062 106.528 100.283 106.268 100.417 105.962L101.271 106.458C101.032 106.896 100.68 107.26 100.252 107.513C99.8232 107.766 99.3347 107.898 98.8377 107.896C98.1603 107.905 97.5069 107.644 97.021 107.17C96.5351 106.696 96.2564 106.048 96.246 105.368C96.2411 105.287 96.2411 105.206 96.246 105.125C96.246 103.504 97.1049 102.285 98.8081 102.285C100.511 102.285 101.276 103.519 101.276 105.055V105.209H97.2678L97.2728 105.244ZM100.269 104.475C100.243 104.11 100.077 103.77 99.8068 103.524C99.5365 103.279 99.1823 103.147 98.8179 103.157C98.4526 103.155 98.0992 103.288 97.8259 103.531C97.5525 103.775 97.3783 104.111 97.3369 104.475H100.299H100.269ZM103.118 103.102C103.266 102.861 103.471 102.66 103.714 102.517C103.958 102.373 104.233 102.292 104.515 102.28C104.828 102.276 105.136 102.361 105.404 102.523C105.671 102.686 105.889 102.921 106.03 103.202C106.199 102.922 106.437 102.69 106.72 102.529C107.004 102.367 107.324 102.281 107.65 102.28C109.027 102.28 109.387 103.36 109.387 104.56V107.717H108.4V104.743C108.4 104.069 108.306 103.207 107.413 103.207C106.336 103.207 106.253 104.332 106.253 105.14V107.737H105.221V104.966C105.221 104.282 105.221 103.231 104.258 103.231C103.182 103.231 103.093 104.347 103.093 105.169V107.762H102.061V102.458H103.073V103.122L103.118 103.102ZM112.181 100.019C112.161 100.198 112.074 100.362 111.937 100.478C111.8 100.594 111.624 100.653 111.445 100.643C111.267 100.633 111.098 100.554 110.975 100.424C110.852 100.293 110.784 100.12 110.784 99.9402C110.784 99.7604 110.852 99.5874 110.975 99.4567C111.098 99.326 111.267 99.2476 111.445 99.2374C111.624 99.2273 111.8 99.2862 111.937 99.4022C112.074 99.5181 112.161 99.6822 112.181 99.8608C112.186 99.9136 112.186 99.9667 112.181 100.019ZM111.989 107.707H110.977V102.423H111.989V107.707ZM114.625 103.147C114.793 102.879 115.026 102.659 115.302 102.507C115.579 102.355 115.89 102.277 116.205 102.28C117.686 102.28 118.041 103.271 118.041 104.57V107.717H117.054V104.674C117.054 103.752 116.926 103.187 115.894 103.187C114.591 103.187 114.591 104.337 114.591 105.288V107.717H113.603V102.433H114.591V103.142L114.625 103.147ZM120.909 100.019C120.889 100.198 120.802 100.362 120.665 100.478C120.528 100.594 120.352 100.653 120.173 100.643C119.995 100.633 119.826 100.554 119.703 100.424C119.58 100.293 119.512 100.12 119.512 99.9402C119.512 99.7604 119.58 99.5874 119.703 99.4567C119.826 99.326 119.995 99.2476 120.173 99.2374C120.352 99.2273 120.528 99.2862 120.665 99.4022C120.802 99.5181 120.889 99.6822 120.909 99.8608C120.914 99.9136 120.914 99.9667 120.909 100.019ZM120.717 107.707H119.705V102.423H120.717V107.707ZM124.449 103.628C124.39 103.496 124.296 103.384 124.178 103.303C124.059 103.221 123.921 103.174 123.778 103.167C123.64 103.164 123.506 103.213 123.404 103.305C123.301 103.397 123.237 103.525 123.225 103.663C123.225 104.124 123.832 104.327 124.449 104.584C124.78 104.675 125.076 104.866 125.293 105.133C125.511 105.399 125.64 105.728 125.663 106.071C125.656 106.541 125.463 106.989 125.127 107.316C124.791 107.643 124.339 107.823 123.871 107.816H123.822C123.439 107.824 123.062 107.718 122.739 107.512C122.416 107.305 122.161 107.008 122.005 106.656L122.869 106.26C122.942 106.449 123.067 106.613 123.23 106.732C123.393 106.852 123.586 106.922 123.787 106.934C123.987 106.946 124.183 106.878 124.333 106.746C124.483 106.613 124.575 106.426 124.587 106.225V106.185C124.586 106.066 124.551 105.948 124.487 105.847C124.422 105.746 124.33 105.666 124.222 105.615L123.235 105.09C122.954 104.997 122.709 104.82 122.532 104.582C122.355 104.345 122.256 104.058 122.247 103.762C122.248 103.559 122.288 103.359 122.366 103.173C122.444 102.986 122.558 102.817 122.701 102.675C122.844 102.533 123.013 102.42 123.2 102.344C123.386 102.267 123.586 102.229 123.787 102.23C124.09 102.228 124.387 102.314 124.642 102.477C124.897 102.641 125.099 102.875 125.224 103.152L124.449 103.628ZM127.801 107.717H126.814V103.385H126.261V102.458H126.814V100.441H127.801V102.458H128.788V103.385H127.801V107.717ZM133.75 100.188V102.577H136.712V103.568H133.75V107.742H132.693V99.2214H136.815V100.213L133.75 100.188ZM138.874 102.438V105.353C138.874 106.2 139.086 106.939 140.088 106.939C141.09 106.939 141.303 106.19 141.303 105.353V102.438H142.29V105.472C142.29 106.914 141.619 107.9 140.064 107.9C138.509 107.9 137.887 106.909 137.887 105.472V102.438H138.849H138.874ZM144.674 103.147C144.842 102.879 145.075 102.659 145.352 102.507C145.628 102.355 145.939 102.277 146.254 102.28C147.735 102.28 148.095 103.271 148.095 104.57V107.717H147.108V104.674C147.108 103.752 146.98 103.187 145.948 103.187C144.645 103.187 144.645 104.337 144.645 105.288V107.717H143.633V102.433H144.645V103.142L144.674 103.147ZM153.452 106.884C153.258 107.184 152.995 107.431 152.684 107.603C152.373 107.776 152.025 107.87 151.67 107.876C150.986 107.794 150.356 107.463 149.898 106.946C149.441 106.429 149.189 105.762 149.189 105.07C149.189 104.379 149.441 103.711 149.898 103.194C150.356 102.677 150.986 102.347 151.67 102.265C152.039 102.265 152.401 102.36 152.723 102.541C153.045 102.723 153.314 102.984 153.506 103.301V97.9228H154.454V107.702H153.442V106.879L153.452 106.884ZM153.506 105.041C153.539 104.592 153.394 104.148 153.101 103.807C152.809 103.465 152.393 103.255 151.946 103.221C151.499 103.188 151.057 103.334 150.717 103.628C150.377 103.922 150.168 104.339 150.134 104.788C150.129 104.872 150.129 104.956 150.134 105.041C150.153 105.478 150.338 105.892 150.651 106.196C150.965 106.501 151.383 106.673 151.819 106.677C152.255 106.682 152.676 106.518 152.995 106.22C153.315 105.922 153.508 105.512 153.536 105.075L153.506 105.041ZM0.825619 120.5V122.205H2.91875V122.899H0.825619V125.873H0.0703125V119.816H2.9928V120.505H0.825619V120.5ZM4.53797 125.858H3.82216V118.894H4.53797V125.858ZM5.99428 124.104C5.97676 124.417 6.08391 124.725 6.29219 124.959C6.50046 125.193 6.79282 125.335 7.10503 125.353C7.34187 125.353 7.57364 125.284 7.77244 125.154C7.97124 125.025 8.12862 124.841 8.22564 124.624L8.83285 124.966C8.66226 125.275 8.41262 125.532 8.10973 125.712C7.80683 125.891 7.46168 125.986 7.10996 125.987C6.86862 125.988 6.6294 125.942 6.40605 125.85C6.1827 125.758 5.97963 125.623 5.80851 125.452C5.6374 125.281 5.50161 125.078 5.40895 124.854C5.31629 124.63 5.26859 124.391 5.2686 124.148C5.26614 124.104 5.26614 124.059 5.2686 124.014C5.22609 123.529 5.37683 123.047 5.68777 122.674C5.9987 122.3 6.44446 122.066 6.92731 122.022H7.10996C7.57262 122.015 8.01901 122.193 8.35124 122.516C8.68347 122.84 8.87442 123.282 8.88222 123.747C8.88975 123.839 8.88975 123.932 8.88222 124.024V124.133L5.99428 124.104ZM8.12691 123.563C8.10913 123.305 7.99117 123.063 7.79831 122.891C7.60545 122.719 7.35304 122.629 7.09515 122.641C6.83595 122.638 6.58439 122.73 6.38796 122.899C6.19152 123.069 6.06378 123.305 6.02884 123.563H8.12691ZM9.18335 122.076H10.0275L10.9309 123.286L11.8788 122.076H12.7427L11.3653 123.791L12.9747 125.833H12.1355L10.9309 124.307L9.73626 125.833H8.85753L10.5261 123.791L9.18335 122.076ZM14.3866 120.386C14.3866 120.484 14.3576 120.58 14.3034 120.662C14.2491 120.743 14.172 120.807 14.0818 120.844C13.9916 120.882 13.8924 120.891 13.7966 120.872C13.7008 120.853 13.6129 120.806 13.5438 120.737C13.4748 120.667 13.4278 120.579 13.4087 120.483C13.3897 120.387 13.3995 120.287 13.4368 120.196C13.4742 120.106 13.5375 120.028 13.6186 119.974C13.6998 119.92 13.7953 119.89 13.8929 119.89C14.0238 119.89 14.1494 119.943 14.242 120.036C14.3346 120.129 14.3866 120.255 14.3866 120.386ZM14.2483 125.868H13.5227V122.076H14.2385V125.833L14.2483 125.868ZM15.3443 118.894H16.0601V122.731C16.1956 122.509 16.3847 122.324 16.6099 122.195C16.8352 122.066 17.0892 121.996 17.3486 121.992C17.8344 122.052 18.2817 122.288 18.6061 122.656C18.9305 123.024 19.1096 123.498 19.1096 123.99C19.1096 124.481 18.9305 124.955 18.6061 125.323C18.2817 125.691 17.8344 125.927 17.3486 125.987C17.0956 125.982 16.8478 125.914 16.6268 125.791C16.4057 125.667 16.2179 125.491 16.0798 125.278V125.858H15.3443V118.894ZM18.4494 124.004C18.4665 123.842 18.4516 123.678 18.4055 123.522C18.3594 123.366 18.283 123.22 18.1807 123.094C18.0785 122.967 17.9523 122.862 17.8095 122.784C17.6667 122.707 17.5101 122.658 17.3486 122.641H17.2498C16.9822 122.612 16.7121 122.664 16.4736 122.789C16.2351 122.914 16.0391 123.108 15.9105 123.345C15.7819 123.583 15.7265 123.853 15.7514 124.122C15.7762 124.391 15.8801 124.647 16.05 124.857C16.2198 125.066 16.4479 125.22 16.7052 125.3C16.9625 125.379 17.2375 125.38 17.4952 125.301C17.7529 125.223 17.9817 125.07 18.1524 124.861C18.3232 124.653 18.4283 124.397 18.4544 124.128C18.4594 124.076 18.4594 124.023 18.4544 123.97L18.4494 124.004ZM20.8634 120.371C20.8634 120.469 20.8345 120.565 20.7802 120.647C20.726 120.728 20.6489 120.792 20.5587 120.829C20.4685 120.867 20.3692 120.877 20.2735 120.857C20.1777 120.838 20.0897 120.791 20.0207 120.722C19.9517 120.652 19.9046 120.564 19.8856 120.468C19.8666 120.372 19.8763 120.272 19.9137 120.182C19.9511 120.091 20.0143 120.014 20.0955 119.959C20.1767 119.905 20.2721 119.876 20.3698 119.876C20.5007 119.876 20.6263 119.928 20.7189 120.021C20.8114 120.114 20.8634 120.24 20.8634 120.371ZM20.7252 125.853H20.0045V122.061H20.7203V125.853H20.7252ZM22.6258 125.853H21.9051V118.894H22.6209L22.6258 125.853ZM24.6647 120.401C24.6647 120.499 24.6357 120.595 24.5815 120.676C24.5272 120.758 24.4501 120.821 24.3599 120.859C24.2697 120.896 24.1704 120.906 24.0747 120.887C23.9789 120.868 23.891 120.821 23.8219 120.752C23.7529 120.682 23.7059 120.594 23.6868 120.498C23.6678 120.402 23.6775 120.302 23.7149 120.211C23.7523 120.121 23.8155 120.043 23.8967 119.989C23.9779 119.934 24.0734 119.905 24.171 119.905C24.3019 119.905 24.4275 119.958 24.5201 120.051C24.6126 120.143 24.6647 120.27 24.6647 120.401ZM24.5314 125.883H23.8057V122.091H24.5264V125.883H24.5314ZM26.506 125.883H25.8001V122.8H25.3854V122.101H25.8001V120.634H26.5159V122.076H27.2218V122.75H26.5011V125.858L26.506 125.883Z" fill="#595A5C"/>
<path d="M26.9947 122.076H27.8339L29.0928 124.456L30.2776 122.076H31.0872L28.0512 127.97H27.2218L28.7028 125.204L26.9947 122.076ZM37.5888 125.858H36.6804L34.9082 123.296H34.6268V125.858H33.8517V119.806H34.7699C35.3157 119.761 35.8637 119.86 36.3595 120.094C36.6523 120.282 36.8809 120.556 37.0152 120.878C37.1494 121.2 37.1828 121.555 37.1111 121.897C37.0393 122.238 36.8656 122.55 36.6132 122.79C36.3608 123.03 36.0416 123.188 35.698 123.241L37.5888 125.858ZM34.6268 122.666H34.8637C35.6338 122.666 36.4632 122.518 36.4632 121.561C36.4632 120.604 35.545 120.48 34.8292 120.48H34.6268V122.666ZM38.5761 124.104C38.5599 124.417 38.6675 124.724 38.8755 124.958C39.0835 125.192 39.3751 125.334 39.6868 125.353C39.9239 125.354 40.1562 125.286 40.3553 125.156C40.5543 125.027 40.7114 124.842 40.8074 124.624L41.4443 124.966C41.2709 125.28 41.0158 125.541 40.7063 125.721C40.3967 125.901 40.0444 125.993 39.6868 125.987C39.4455 125.989 39.2063 125.942 38.9829 125.85C38.7596 125.758 38.5565 125.623 38.3854 125.452C38.2143 125.281 38.0785 125.078 37.9858 124.854C37.8932 124.631 37.8455 124.391 37.8455 124.148C37.843 124.104 37.843 124.059 37.8455 124.014C37.803 123.53 37.9537 123.047 38.2646 122.674C38.5756 122.3 39.0213 122.066 39.5042 122.022H39.6868C40.1499 122.021 40.5947 122.203 40.924 122.53C41.2533 122.857 41.4404 123.302 41.4443 123.767C41.4494 123.852 41.4494 123.939 41.4443 124.024V124.133L38.5761 124.104ZM40.7087 123.563C40.6909 123.306 40.5737 123.065 40.3819 122.893C40.1901 122.721 39.9389 122.631 39.6819 122.641C39.4157 122.627 39.1538 122.714 38.9488 122.885C38.7437 123.056 38.6106 123.298 38.5761 123.563H40.7087ZM43.5127 123.013C43.4705 122.916 43.4015 122.834 43.3141 122.775C43.2266 122.716 43.1243 122.684 43.0191 122.681C42.9178 122.678 42.8195 122.716 42.7455 122.786C42.6716 122.855 42.628 122.951 42.6241 123.053C42.7036 123.23 42.8271 123.383 42.9828 123.497C43.1385 123.612 43.321 123.684 43.5127 123.707C43.7498 123.772 43.9603 123.911 44.1145 124.103C44.2687 124.295 44.3587 124.531 44.3717 124.778C44.3698 124.944 44.3353 125.108 44.2702 125.26C44.2052 125.413 44.1108 125.551 43.9925 125.667C43.8743 125.783 43.7344 125.875 43.5809 125.936C43.4274 125.998 43.2634 126.029 43.098 126.027C42.8228 126.032 42.5523 125.954 42.3211 125.804C42.0899 125.654 41.9084 125.438 41.7997 125.184L42.4168 124.902C42.4668 125.044 42.5588 125.168 42.6805 125.256C42.8022 125.345 42.9478 125.394 43.098 125.397C43.2387 125.407 43.3774 125.36 43.4838 125.267C43.5902 125.174 43.6556 125.043 43.6658 124.902V124.872C43.6647 124.786 43.639 124.702 43.5917 124.63C43.5445 124.558 43.4777 124.501 43.3992 124.466L42.6932 124.089C42.4943 124.027 42.3189 123.906 42.1909 123.741C42.0629 123.576 41.9884 123.376 41.9774 123.167C41.98 122.876 42.0973 122.598 42.3036 122.393C42.5099 122.189 42.7885 122.075 43.0783 122.076C43.2932 122.076 43.5038 122.137 43.6849 122.253C43.8661 122.369 44.0103 122.535 44.1002 122.731L43.5127 123.013ZM48.7752 124.005C48.781 124.403 48.6688 124.795 48.4526 125.13C48.2364 125.464 47.926 125.727 47.5609 125.884C47.1958 126.041 46.7924 126.086 46.402 126.012C46.0115 125.939 45.6516 125.75 45.368 125.471C45.0843 125.192 44.8897 124.834 44.8088 124.444C44.7279 124.053 44.7645 123.648 44.9137 123.278C45.063 122.908 45.3183 122.592 45.6472 122.368C45.9761 122.144 46.3638 122.024 46.761 122.022C47.2822 122.014 47.7855 122.213 48.1609 122.576C48.5364 122.939 48.7536 123.437 48.7653 123.96V124.005H48.7752ZM45.4874 124.005C45.4922 124.258 45.5715 124.503 45.7151 124.711C45.8587 124.919 46.0604 125.08 46.2947 125.173C46.529 125.266 46.7855 125.288 47.032 125.235C47.2785 125.183 47.504 125.058 47.6802 124.877C47.8563 124.696 47.9753 124.467 48.0221 124.218C48.0689 123.97 48.0415 123.713 47.9432 123.48C47.845 123.246 47.6804 123.048 47.4701 122.908C47.2597 122.769 47.0131 122.695 46.761 122.696C46.5912 122.695 46.4227 122.727 46.2653 122.791C46.1079 122.855 45.9646 122.95 45.8436 123.069C45.7225 123.189 45.6262 123.331 45.56 123.489C45.4938 123.646 45.4591 123.814 45.4578 123.985L45.4874 124.005ZM50.0686 122.086V124.163C50.0187 124.302 50.0028 124.452 50.0224 124.598C50.0421 124.745 50.0965 124.885 50.1812 125.006C50.266 125.127 50.3785 125.225 50.5092 125.294C50.64 125.362 50.7851 125.397 50.9325 125.397C51.0798 125.397 51.225 125.362 51.3558 125.294C51.4865 125.225 51.599 125.127 51.6837 125.006C51.7685 124.885 51.8229 124.745 51.8425 124.598C51.8622 124.452 51.8463 124.302 51.7964 124.163V122.086H52.5172V124.247C52.5492 124.67 52.4128 125.088 52.1378 125.41C51.8629 125.731 51.4719 125.93 51.051 125.962C50.63 125.995 50.2136 125.858 49.8933 125.582C49.573 125.305 49.375 124.913 49.3429 124.49C49.3379 124.409 49.3379 124.328 49.3429 124.247V122.086H50.0686ZM54.2795 122.721C54.355 122.51 54.4938 122.327 54.6768 122.199C54.8598 122.07 55.078 122.001 55.3014 122.002C55.5103 122.008 55.7135 122.071 55.8889 122.185L55.5581 122.845C55.4357 122.737 55.2767 122.68 55.1138 122.686C54.3437 122.686 54.245 123.405 54.245 124.014V125.858H53.5341V122.086H54.2894V122.721H54.2795ZM59.0335 123.182C58.9019 123.024 58.7371 122.898 58.551 122.812C58.3648 122.727 58.1621 122.684 57.9573 122.686C57.6182 122.696 57.2968 122.841 57.063 123.088C56.8291 123.334 56.7017 123.664 56.7084 124.005C56.7004 124.172 56.7254 124.339 56.782 124.496C56.8386 124.653 56.9255 124.798 57.0379 124.921C57.1504 125.045 57.286 125.145 57.437 125.215C57.588 125.286 57.7514 125.326 57.9178 125.333C57.9458 125.335 57.9738 125.335 58.0018 125.333C58.1977 125.33 58.3907 125.284 58.5672 125.198C58.7437 125.113 58.8995 124.99 59.0236 124.837V125.759C58.7068 125.93 58.3513 126.015 57.9919 126.007C57.4707 126.015 56.9675 125.816 56.592 125.453C56.2165 125.09 55.9993 124.592 55.9876 124.069V124.005C55.9824 123.741 56.0296 123.479 56.1264 123.234C56.2233 122.989 56.3679 122.765 56.5518 122.577C56.7357 122.389 56.9552 122.239 57.1974 122.137C57.4396 122.035 57.6996 121.982 57.9623 121.982H58.0363C58.3806 121.983 58.7195 122.068 59.0236 122.23V123.157L59.0335 123.182ZM60.2331 124.114C60.2169 124.427 60.3245 124.734 60.5325 124.968C60.7406 125.202 61.0321 125.343 61.3439 125.363C61.5809 125.363 61.8129 125.295 62.0118 125.165C62.2107 125.036 62.368 124.851 62.4645 124.634L63.0717 124.976C62.9003 125.286 62.6491 125.545 62.3443 125.724C62.0395 125.904 61.6923 125.998 61.3389 125.997C60.8514 125.998 60.3833 125.806 60.0372 125.461C59.6911 125.116 59.4952 124.648 59.4926 124.158C59.4926 124.114 59.4926 124.069 59.4926 124.024C59.4695 123.783 59.4939 123.54 59.5645 123.308C59.6351 123.076 59.7505 122.861 59.9041 122.674C60.0577 122.487 60.2465 122.332 60.4596 122.219C60.6728 122.105 60.9062 122.035 61.1464 122.012H61.334C61.5628 122.009 61.7901 122.051 62.0028 122.136C62.2155 122.221 62.4094 122.347 62.5735 122.507C62.7376 122.667 62.8687 122.858 62.9593 123.069C63.0498 123.28 63.0981 123.507 63.1013 123.737C63.1113 123.829 63.1113 123.922 63.1013 124.014V124.124L60.2331 124.114ZM62.3658 123.573C62.348 123.316 62.2307 123.075 62.0389 122.903C61.8471 122.731 61.596 122.64 61.3389 122.651C61.0794 122.647 60.8273 122.738 60.6306 122.908C60.434 123.078 60.3065 123.315 60.2726 123.573H62.3658ZM65.2339 123.013C65.1927 122.916 65.124 122.832 65.0364 122.773C64.9487 122.714 64.8458 122.682 64.7403 122.681C64.639 122.678 64.5407 122.716 64.4668 122.786C64.3928 122.855 64.3492 122.951 64.3453 123.053C64.4248 123.23 64.5483 123.383 64.704 123.497C64.8597 123.612 65.0422 123.684 65.2339 123.707C65.4715 123.772 65.6827 123.911 65.8378 124.103C65.9928 124.295 66.0838 124.531 66.0979 124.778C66.0959 124.944 66.0614 125.108 65.9964 125.26C65.9313 125.413 65.837 125.551 65.7187 125.667C65.6004 125.783 65.4606 125.875 65.3071 125.936C65.1536 125.998 64.9895 126.029 64.8242 126.027C64.5489 126.032 64.2785 125.954 64.0473 125.804C63.8161 125.654 63.6346 125.438 63.5259 125.184L64.1429 124.902C64.193 125.044 64.285 125.168 64.4067 125.256C64.5283 125.345 64.674 125.394 64.8242 125.397C64.9649 125.407 65.1036 125.36 65.21 125.267C65.3164 125.174 65.3818 125.043 65.3919 124.902V124.872C65.3908 124.786 65.3652 124.702 65.3179 124.63C65.2707 124.558 65.2038 124.501 65.1253 124.466L64.4293 124.054C64.2294 123.992 64.0532 123.87 63.9244 123.704C63.7956 123.538 63.7202 123.337 63.7085 123.127C63.7137 122.837 63.8327 122.56 64.0396 122.357C64.2466 122.154 64.5249 122.04 64.8143 122.042C65.0295 122.04 65.2406 122.1 65.422 122.217C65.6034 122.333 65.7473 122.499 65.8362 122.696L65.2339 123.013ZM69.9336 125.873H69.1684V119.806H69.9336V125.873ZM71.6861 122.627C71.8027 122.432 71.9689 122.272 72.1676 122.163C72.3663 122.054 72.5904 122 72.8166 122.007C73.8731 122.007 74.1396 122.726 74.1396 123.643V125.883H73.4436V123.732C73.4436 123.088 73.3498 122.656 72.6142 122.656C71.696 122.656 71.696 123.474 71.696 124.143V125.868H70.9703V122.076H71.6516V122.612L71.6861 122.627ZM77.9014 123.187C77.7697 123.029 77.6049 122.903 77.4188 122.817C77.2327 122.732 77.0299 122.688 76.8252 122.691C76.4865 122.703 76.1658 122.847 75.9323 123.094C75.6987 123.34 75.5708 123.669 75.5762 124.01C75.5682 124.177 75.5933 124.344 75.6498 124.501C75.7064 124.658 75.7934 124.803 75.9058 124.926C76.0182 125.05 76.1538 125.15 76.3048 125.22C76.4558 125.291 76.6192 125.331 76.7857 125.338C76.8136 125.34 76.8417 125.34 76.8696 125.338C77.0656 125.335 77.2586 125.289 77.435 125.203C77.6115 125.118 77.7673 124.994 77.8915 124.842V125.764C77.5746 125.935 77.2192 126.02 76.8597 126.012C76.3436 126.012 75.848 125.809 75.4789 125.447C75.1099 125.085 74.8967 124.592 74.8851 124.074V124.005C74.8798 123.741 74.927 123.479 75.0239 123.234C75.1208 122.989 75.2654 122.765 75.4493 122.577C75.6332 122.389 75.8526 122.239 76.0948 122.137C76.337 122.035 76.5971 121.982 76.8597 121.982H76.9387C77.283 121.983 77.622 122.068 77.926 122.23V123.157L77.9014 123.187ZM79.4268 125.873H78.706V118.894H79.4268V125.873ZM81.1349 122.091V124.168C81.0849 124.307 81.0691 124.457 81.0887 124.603C81.1083 124.75 81.1628 124.89 81.2475 125.011C81.3322 125.132 81.4447 125.23 81.5755 125.299C81.7062 125.367 81.8514 125.402 81.9988 125.402C82.1461 125.402 82.2913 125.367 82.4221 125.299C82.5528 125.23 82.6653 125.132 82.75 125.011C82.8348 124.89 82.8892 124.75 82.9088 124.603C82.9284 124.457 82.9126 124.307 82.8627 124.168V122.091H83.5785V124.252C83.6017 124.669 83.4612 125.079 83.1871 125.393C82.913 125.707 82.5271 125.901 82.1124 125.933C81.6976 125.965 81.2869 125.832 80.9685 125.563C80.65 125.294 80.4493 124.911 80.4092 124.495C80.4042 124.414 80.4042 124.333 80.4092 124.252V122.091H81.1349ZM86.0419 123.013C86.0055 122.91 85.939 122.819 85.851 122.754C85.7631 122.688 85.6576 122.651 85.5482 122.646C85.4477 122.644 85.3502 122.681 85.2764 122.749C85.2026 122.818 85.1584 122.912 85.1533 123.013C85.2307 123.19 85.3514 123.345 85.5041 123.463C85.6569 123.581 85.8367 123.658 86.0271 123.687C86.2647 123.752 86.4759 123.891 86.6309 124.083C86.7859 124.275 86.8769 124.511 86.891 124.758C86.8884 124.924 86.8533 125.088 86.7877 125.24C86.722 125.393 86.6271 125.53 86.5084 125.646C86.3896 125.761 86.2494 125.852 86.0957 125.913C85.9419 125.975 85.7777 126.005 85.6124 126.002C85.3381 126.008 85.0683 125.932 84.8377 125.782C84.6072 125.633 84.4265 125.418 84.319 125.164L84.9361 124.877C84.9858 125.018 85.0771 125.141 85.1978 125.23C85.3185 125.318 85.463 125.368 85.6124 125.373C85.7536 125.382 85.8928 125.336 86 125.243C86.1072 125.15 86.1737 125.019 86.185 124.877V124.847C86.1834 124.761 86.1574 124.677 86.1103 124.605C86.0631 124.533 85.9966 124.476 85.9185 124.441L85.2125 124.064C85.0126 124.002 84.8365 123.88 84.7076 123.714C84.5788 123.548 84.5035 123.347 84.4918 123.137C84.498 122.885 84.5895 122.642 84.7512 122.448C84.9129 122.255 85.1353 122.122 85.3819 122.072C85.6285 122.022 85.8848 122.057 86.1087 122.172C86.3327 122.288 86.511 122.476 86.6145 122.706L86.0419 123.013ZM88.6237 120.401C88.6237 120.499 88.5948 120.595 88.5406 120.676C88.4863 120.758 88.4092 120.822 88.319 120.859C88.2288 120.897 88.1295 120.906 88.0338 120.887C87.938 120.868 87.8501 120.821 87.781 120.752C87.712 120.682 87.665 120.594 87.6459 120.498C87.6269 120.402 87.6366 120.302 87.674 120.211C87.7114 120.121 87.7746 120.043 87.8558 119.989C87.937 119.935 88.0324 119.905 88.1301 119.905C88.261 119.905 88.3866 119.958 88.4792 120.051C88.5717 120.144 88.6237 120.27 88.6237 120.401ZM88.4855 125.883H87.7697V122.091H88.4855V125.883ZM90.9144 124.461L91.9856 122.091H92.7952L90.9045 125.987L89.0631 122.101H89.8727L90.9144 124.461ZM94.212 120.401C94.212 120.499 94.1831 120.595 94.1288 120.676C94.0746 120.758 93.9975 120.822 93.9073 120.859C93.8171 120.897 93.7178 120.906 93.622 120.887C93.5263 120.868 93.4383 120.821 93.3693 120.752C93.3002 120.682 93.2532 120.594 93.2342 120.498C93.2151 120.402 93.2249 120.302 93.2623 120.211C93.2996 120.121 93.3629 120.043 93.4441 119.989C93.5253 119.935 93.6207 119.905 93.7184 119.905C93.8493 119.905 93.9749 119.958 94.0674 120.051C94.16 120.144 94.212 120.27 94.212 120.401ZM94.0738 125.883H93.358V122.091H94.0738V125.883ZM96.0485 125.883H95.3326V122.8H94.9377V122.101H95.3326V120.634H96.0485V122.076H96.7544V122.751H96.0485V125.858V125.883Z" fill="#595A5C"/>
<path d="M96.5619 122.076H97.3962L98.66 124.455L99.8349 122.076H100.645L97.6085 127.97H96.7939L98.2749 125.204L96.5619 122.076ZM103.315 119.806H104.564C106.406 119.806 107.951 120.797 107.951 122.805C107.951 124.812 106.44 125.868 104.54 125.868H103.315V119.806ZM104.071 125.169H104.337C105.872 125.169 107.205 124.584 107.205 122.835C107.205 121.085 105.882 120.5 104.337 120.5H104.071V125.174V125.169ZM109.629 120.386C109.629 120.484 109.6 120.58 109.546 120.661C109.492 120.743 109.415 120.806 109.324 120.844C109.234 120.882 109.135 120.891 109.039 120.872C108.943 120.853 108.856 120.806 108.786 120.737C108.717 120.667 108.67 120.579 108.651 120.483C108.632 120.387 108.642 120.287 108.679 120.196C108.717 120.106 108.78 120.028 108.861 119.974C108.942 119.919 109.038 119.89 109.136 119.89C109.266 119.89 109.392 119.943 109.485 120.036C109.577 120.129 109.629 120.255 109.629 120.386ZM109.491 125.868H108.775V122.076H109.491V125.868ZM111.92 124.446L113.001 122.106H113.811L111.93 125.987L110.088 122.106H110.898L111.92 124.446ZM114.63 124.104C114.613 124.417 114.72 124.725 114.928 124.959C115.136 125.193 115.429 125.335 115.741 125.353C115.978 125.352 116.209 125.284 116.408 125.154C116.607 125.025 116.764 124.841 116.861 124.624L117.469 124.966C117.297 125.277 117.045 125.536 116.739 125.716C116.433 125.895 116.085 125.989 115.731 125.987C115.49 125.988 115.25 125.942 115.027 125.85C114.804 125.758 114.601 125.623 114.429 125.452C114.258 125.281 114.123 125.078 114.03 124.854C113.937 124.63 113.89 124.39 113.89 124.148C113.887 124.104 113.887 124.059 113.89 124.014C113.869 123.771 113.896 123.526 113.971 123.294C114.045 123.061 114.165 122.846 114.323 122.661C114.481 122.475 114.674 122.323 114.891 122.213C115.108 122.104 115.345 122.039 115.588 122.022H115.77C116.233 122.015 116.679 122.193 117.012 122.516C117.344 122.84 117.535 123.282 117.543 123.747C117.548 123.839 117.548 123.932 117.543 124.024V124.133H114.665L114.63 124.104ZM116.763 123.563C116.745 123.305 116.627 123.063 116.434 122.891C116.241 122.719 115.989 122.629 115.731 122.641C115.473 122.641 115.223 122.734 115.027 122.903C114.831 123.072 114.703 123.307 114.665 123.563H116.763ZM118.866 122.711C118.941 122.5 119.08 122.317 119.263 122.188C119.446 122.06 119.664 121.991 119.888 121.992C120.096 121.998 120.3 122.061 120.475 122.175L120.144 122.835C120.022 122.727 119.863 122.67 119.7 122.676C118.93 122.676 118.831 123.395 118.831 124.004V125.848H118.11V122.076H118.831V122.686L118.866 122.711ZM122.405 122.998C122.363 122.901 122.294 122.819 122.207 122.76C122.119 122.701 122.017 122.669 121.912 122.666C121.81 122.663 121.712 122.701 121.638 122.771C121.564 122.84 121.521 122.936 121.517 123.038C121.593 123.215 121.713 123.37 121.866 123.487C122.019 123.605 122.2 123.68 122.39 123.707C122.628 123.773 122.838 123.911 122.993 124.103C123.148 124.295 123.24 124.531 123.254 124.778C123.249 125.113 123.112 125.433 122.872 125.667C122.632 125.901 122.31 126.031 121.976 126.027C121.701 126.032 121.431 125.954 121.201 125.804C120.97 125.654 120.79 125.438 120.682 125.184L121.294 124.902C121.345 125.043 121.437 125.167 121.559 125.255C121.68 125.344 121.826 125.393 121.976 125.397C122.046 125.403 122.116 125.394 122.182 125.372C122.249 125.35 122.31 125.315 122.363 125.269C122.416 125.223 122.459 125.166 122.49 125.103C122.521 125.04 122.539 124.972 122.543 124.902C122.541 124.892 122.541 124.882 122.543 124.872C122.541 124.786 122.514 124.703 122.467 124.631C122.42 124.559 122.354 124.502 122.277 124.465L121.566 124.089C121.368 124.026 121.193 123.904 121.065 123.739C120.938 123.575 120.863 123.375 120.85 123.167C120.853 122.876 120.97 122.598 121.176 122.393C121.383 122.189 121.661 122.075 121.951 122.076C122.166 122.075 122.377 122.137 122.558 122.253C122.739 122.369 122.883 122.535 122.973 122.731L122.405 122.998ZM124.967 120.386C124.967 120.484 124.938 120.58 124.884 120.661C124.83 120.743 124.753 120.806 124.663 120.844C124.572 120.882 124.473 120.891 124.377 120.872C124.282 120.853 124.194 120.806 124.125 120.737C124.056 120.667 124.009 120.579 123.99 120.483C123.97 120.387 123.98 120.287 124.018 120.196C124.055 120.106 124.118 120.028 124.199 119.974C124.281 119.919 124.376 119.89 124.474 119.89C124.605 119.89 124.73 119.943 124.823 120.036C124.915 120.129 124.967 120.255 124.967 120.386ZM124.829 125.868H124.113V122.076H124.829V125.868ZM126.804 125.868H126.088V122.785H125.693V122.086H126.088V120.634H126.804V122.076H127.515V122.75H126.804V125.858V125.868Z" fill="#595A5C"/>
<path d="M127.322 122.076H128.156L129.415 124.456L130.566 122.076H131.385L128.339 127.97H127.525L129.006 125.204L127.322 122.076ZM135.033 124.347L134.342 125.868H133.532L136.411 119.544L139.284 125.868H138.479L137.788 124.347H135.033ZM136.42 121.209L135.334 123.653H137.472L136.42 121.209ZM142.512 123.192C142.381 123.034 142.216 122.907 142.03 122.821C141.844 122.736 141.641 122.693 141.436 122.696C141.097 122.708 140.777 122.852 140.543 123.099C140.31 123.345 140.182 123.674 140.187 124.014C140.179 124.182 140.204 124.349 140.261 124.506C140.317 124.663 140.404 124.808 140.517 124.931C140.629 125.055 140.765 125.155 140.916 125.225C141.067 125.296 141.23 125.336 141.397 125.343H141.48C141.676 125.345 141.87 125.304 142.048 125.222C142.227 125.141 142.385 125.021 142.512 124.872V125.799C142.194 125.967 141.84 126.052 141.48 126.047C140.959 126.055 140.456 125.855 140.081 125.492C139.705 125.129 139.488 124.632 139.476 124.109V124.069C139.472 123.806 139.519 123.544 139.616 123.3C139.714 123.055 139.858 122.832 140.042 122.645C140.226 122.457 140.445 122.308 140.687 122.206C140.929 122.104 141.189 122.052 141.451 122.052H141.53C141.875 122.047 142.215 122.133 142.517 122.299V123.221L142.512 123.192ZM144.062 125.873H143.346V122.79H142.952V122.091H143.346V120.654H144.062V122.091H144.773V122.765H144.062V125.873ZM146.185 120.421C146.185 120.519 146.156 120.615 146.102 120.696C146.048 120.778 145.971 120.841 145.88 120.879C145.79 120.916 145.691 120.926 145.595 120.907C145.499 120.888 145.411 120.841 145.342 120.771C145.273 120.702 145.226 120.614 145.207 120.518C145.188 120.421 145.198 120.322 145.235 120.231C145.273 120.141 145.336 120.063 145.417 120.009C145.498 119.954 145.594 119.925 145.691 119.925C145.822 119.925 145.948 119.977 146.04 120.07C146.133 120.163 146.185 120.289 146.185 120.421ZM146.047 125.903H145.331V122.111H146.047V125.903ZM150.855 124.029C150.861 124.428 150.749 124.82 150.533 125.154C150.316 125.489 150.006 125.751 149.641 125.909C149.276 126.066 148.872 126.11 148.482 126.037C148.091 125.964 147.732 125.775 147.448 125.496C147.164 125.217 146.97 124.859 146.889 124.469C146.808 124.078 146.844 123.672 146.994 123.303C147.143 122.933 147.398 122.616 147.727 122.393C148.056 122.169 148.444 122.049 148.841 122.047C149.362 122.039 149.865 122.238 150.241 122.601C150.616 122.964 150.834 123.461 150.845 123.985V124.005L150.855 124.029ZM147.562 124.005C147.567 124.257 147.646 124.503 147.79 124.711C147.933 124.919 148.135 125.079 148.369 125.173C148.603 125.266 148.859 125.288 149.105 125.236C149.352 125.183 149.577 125.059 149.753 124.879C149.93 124.698 150.049 124.47 150.097 124.221C150.144 123.973 150.117 123.716 150.02 123.483C149.922 123.25 149.758 123.051 149.549 122.911C149.339 122.771 149.093 122.696 148.841 122.696C148.499 122.701 148.173 122.842 147.934 123.087C147.695 123.331 147.561 123.661 147.562 124.005ZM152.213 122.622C152.33 122.427 152.496 122.267 152.695 122.159C152.893 122.05 153.117 121.996 153.343 122.002C154.405 122.002 154.666 122.721 154.666 123.638V125.878H153.95V123.727C153.95 123.083 153.862 122.646 153.126 122.646C152.208 122.646 152.208 123.469 152.208 124.133V125.858H151.487V122.067H152.208V122.602L152.213 122.622ZM0.134537 113.442H154.651H0.134537ZM0.134537 113.155H154.651V113.744H0.134537V113.155Z" fill="#595A5C"/>
</g>
<defs>
<clipPath id="clip0">
<rect width="175.744" height="129.367" fill="white" transform="translate(0.0703125 0.0893555)"/>
</clipPath>
</defs>
</svg>
