<svg width="112" height="112" viewBox="0 0 112 112" fill="none" xmlns="http://www.w3.org/2000/svg">
<path d="M112 0H0V112H112V0Z" fill="#FF6600"/>
<path d="M13.7746 102.988C9.69802 102.988 6.05051 100.414 6.05051 94.7493C6.05051 89.085 9.69802 86.5103 13.7746 86.5103C17.8513 86.5103 21.4988 89.085 21.4988 94.7493C21.4988 100.414 17.8513 102.988 13.7746 102.988ZM13.7746 89.9861C10.7279 89.9861 10.1271 92.7325 10.1271 94.7493C10.1271 96.7233 10.685 99.5126 13.7746 99.5126C16.8643 99.5126 17.3792 96.7662 17.3792 94.7493C17.4222 92.7325 16.8643 89.9861 13.7746 89.9861Z" fill="white"/>
<path d="M24.2881 86.9393H28.1931V88.7845C28.9226 87.7975 30.7678 86.6389 32.4843 86.6389C32.6559 86.6389 32.8276 86.6389 32.9992 86.6818V90.5439H32.7847C30.9824 90.5439 29.0513 90.8014 28.4077 92.2175V102.602H24.2452V86.9393H24.2881Z" fill="white"/>
<path d="M43.9417 101.143C42.3539 102.173 40.6375 102.688 38.7923 102.688C35.8743 102.688 34.1578 100.757 34.1578 98.1394C34.1578 94.6636 37.3762 92.8184 43.9846 92.0459V91.1877C43.9846 90.072 43.1264 89.3854 41.5386 89.3854C39.9509 89.3854 38.6635 90.0291 37.7195 91.1877L34.9731 89.6C36.4321 87.5831 38.6206 86.5532 41.6244 86.5532C45.7011 86.5532 47.9754 88.3126 47.9754 91.1877V102.474H44.3279L43.9417 101.143ZM38.1915 97.882C38.1915 98.9118 38.8352 99.8988 40.0367 99.8988C41.3241 99.8988 42.5685 99.3839 43.8559 98.2682V94.5777C39.9938 95.0498 38.1915 96.0367 38.1915 97.882Z" fill="white"/>
<path d="M51.1937 87.3256L54.5838 86.8536L54.97 88.6988C56.901 87.2827 58.4029 86.5532 60.334 86.5532C63.5523 86.5532 65.183 88.2697 65.183 91.6168V102.474H61.0635V92.3463C61.0635 90.4582 60.5485 89.6 59.0895 89.6C57.8451 89.6 56.6435 90.1578 55.2274 91.3164V102.474H51.1508V87.3256H51.1937Z" fill="white"/>
<path d="M75.2243 99.1692C78.314 99.1692 78.6144 95.9937 78.6144 93.9339C78.6144 91.488 77.4128 89.514 75.2243 89.514C73.7653 89.514 72.0918 90.5868 72.0918 94.1056C72.0489 95.9937 72.1776 99.2121 75.2243 99.1692ZM82.5194 86.8535V101.615C82.5194 104.233 82.3048 108.524 74.881 108.567C71.8343 108.61 68.9592 107.365 68.4013 104.705L72.4351 104.061C72.6067 104.834 73.0787 105.606 75.3531 105.606C77.4987 105.606 78.4856 104.576 78.4856 102.173V100.371L78.4427 100.328C77.7991 101.486 76.8121 102.602 74.409 102.602C70.7615 102.602 67.9293 100.07 67.9293 94.7922C67.9293 89.5998 70.8902 86.6389 74.1945 86.6389C77.327 86.6389 78.4427 88.055 78.7431 88.7845H78.7002L79.0435 86.9393H82.5194V86.8535Z" fill="white"/>
<path d="M92.3463 102.817C87.7547 102.817 85.0084 99.856 85.0084 94.7494C85.0084 89.5571 87.7976 86.5962 92.2605 86.5962C96.7662 86.5962 99.4268 89.4713 99.4268 94.5349C99.4268 94.7924 99.3839 95.0927 99.3839 95.3502H88.9992C89.0421 98.3111 90.2436 99.813 92.6896 99.813C94.2344 99.813 95.2643 99.1694 96.2084 97.8391L99.2122 99.5127C97.9248 101.658 95.5218 102.817 92.3463 102.817ZM95.393 92.6468C95.393 90.5441 94.1915 89.3425 92.2605 89.3425C90.4153 89.3425 89.2566 90.5441 89.085 92.6468H95.393Z" fill="white"/>
<path d="M106.464 81.0176L104.962 84.9226L103.418 81.0176H102.087V86.167H102.946V81.8758H102.989L104.662 86.167H105.22L106.893 81.8758H106.936V86.167H107.795V81.0176H106.464ZM96.9808 81.0176V81.7042H98.6115V86.167H99.4697V81.7042H101.1V81.0176H96.9808Z" fill="white"/>
</svg>
